<svg width="116" height="20" viewBox="0 0 116 20" fill="none" xmlns="http://www.w3.org/2000/svg">
<path d="M115.39 10.9204C115.899 10.7048 116.136 10.1179 115.921 9.60939L112.408 1.32319C112.192 0.814705 111.606 0.57724 111.097 0.792794C110.589 1.00835 110.351 1.5953 110.567 2.10378L113.689 9.4693L106.324 12.5917C105.815 12.8072 105.578 13.3942 105.793 13.9026C106.009 14.4111 106.596 14.6486 107.104 14.433L115.39 10.9204ZM0.511397 10.8722C13.1345 17.9411 22.6196 19.8635 30.7906 19.0811C38.9183 18.3029 45.6351 14.8477 52.6235 11.4622C59.6425 8.0619 67.0205 4.68006 76.6815 3.75303C86.337 2.82651 98.3615 4.34689 114.625 10.9267L115.375 9.07268C98.8885 2.4026 86.538 0.798041 76.4904 1.76217C66.4482 2.72579 58.795 6.25018 51.7515 9.66232C44.6774 13.0893 38.3004 16.3529 30.6 17.0902C22.9429 17.8234 13.8655 16.0583 1.4886 9.12718L0.511397 10.8722Z" fill="black"/>
</svg>